<svg id="logo" data-name="图层 1" xmlns="http://www.w3.org/2000/svg" xmlns:xlink="http://www.w3.org/1999/xlink"
     viewBox="0 0 1000 1000">
    <defs>
        <style>
            .cls-1{fill:url(#未命名的渐变_13);}.cls-2{fill:url(#未命名的渐变_13-2);}.cls-3{fill:url(#未命名的渐变_13-3);}.cls-4{fill:url(#未命名的渐变_13-4);}.cls-5{fill:url(#未命名的渐变_13-5);}.cls-6{fill:#1262b2;}.cls-7{fill:#475766;}.cls-8{fill:none;}
        </style>
        <linearGradient id="未命名的渐变_13" x1="269.86" y1="460.61" x2="286.78" y2="507.08" gradientUnits="userSpaceOnUse">
            <stop offset="0" stop-color="#19b2ff"/>
            <stop offset="1" stop-color="#1262b2"/>
        </linearGradient>
        <linearGradient id="未命名的渐变_13-2" x1="276.55" y1="489.04" x2="293.28" y2="535.01" xlink:href="#未命名的渐变_13"/>
        <linearGradient id="未命名的渐变_13-3" x1="248.76" y1="441.28" x2="264.95" y2="485.77" xlink:href="#未命名的渐变_13"/>
        <linearGradient id="未命名的渐变_13-4" x1="279.91" y1="520" x2="296.41" y2="565.34" xlink:href="#未命名的渐变_13"/>
        <linearGradient id="未命名的渐变_13-5" x1="224.75" y1="425.65" x2="239.72" y2="466.79" xlink:href="#未命名的渐变_13"/>
    </defs>
    <title>美编logo</title>
    <path class="cls-1"
          d="M370.18,430.29h0a7,7,0,0,0-9.62-2.57L183.61,529.87c1.26,2,2.49,4,3.67,6s2.3,4.11,3.37,6.19l177-102.17A7,7,0,0,0,370.18,430.29Z"/>
    <path class="cls-2"
          d="M255.5,520.88l-3.05,1.76-56,32.32A139.77,139.77,0,0,1,201,568.59l63.82-36.85,3.05-1.76,102.57-59.22a70.15,70.15,0,0,0-1.68-15.29Z"/>
    <path class="cls-3"
          d="M234.38,484.3l113.3-65.41a70.43,70.43,0,0,0-12.4-9.1L232.71,469l-3.05,1.76-63.82,36.85a138.11,138.11,0,0,1,9.51,10.76l56-32.32Z"/>
    <path class="cls-4"
          d="M204.24,583a141.11,141.11,0,0,1,1.7,15.28l101.34-58.51L360.48,509a70.44,70.44,0,0,0,9.89-22l-87.06,50.26Z"/>
    <path class="cls-5"
          d="M234,452l87.07-50.27a70.59,70.59,0,0,0-24-2.42L243.92,430,142.58,488.53A137.67,137.67,0,0,1,155,497.64Z"/>
    <path class="cls-6" d="M122.36,524.38l-20.44,60.78,62.86,12.7a113.39,113.39,0,0,0-42.42-73.48Z"/>
    <path class="cls-7"
          d="M704.19,561.82h39.35V546.1H712.21l20.51-49.66a10.06,10.06,0,0,0-9.23-13.9H711.06l22.17-66.32a16.11,16.11,0,0,0-20.66,9.44l-20,60.28a9.11,9.11,0,0,0,8.53,12.32H715l-20.3,49.4A10.27,10.27,0,0,0,704.19,561.82Z"/>
    <rect class="cls-7" x="691.98" y="582.3" width="51.8" height="15.72"/>
    <path class="cls-7"
          d="M897.84,446.31v-6.26a25.1,25.1,0,0,0-25-24.73H840.05a15.26,15.26,0,0,0-15.26-15.26h-.46v15.26H787.81a25.22,25.22,0,0,0-25,24.5l-.93,158.41h15.72l.15-127.2h95.33A24.73,24.73,0,0,0,897.84,446.31Zm-119.74,9,.46-15a9.42,9.42,0,0,1,9.25-9.24h85.07a9.08,9.08,0,0,1,9.25,9v6.26a9.08,9.08,0,0,1-9.25,9Z"/>
    <path class="cls-7"
          d="M873.34,485.4H811.85a24.62,24.62,0,0,0-24.74,24.73v88h15.72V555.9H819v42.2h15.72V555.9h15.49v42.2h15.72V555.9h16.19v42.2h16v-88A24.62,24.62,0,0,0,873.34,485.4ZM819,540.18H802.83v-30a9,9,0,0,1,9-9H819Zm31.21,0H834.73V501.12h15.49Zm31.91,0H865.94V501.12h7.4a8.83,8.83,0,0,1,8.79,9Z"/>
    <polyline class="cls-8" points="463.8 452.89 547.17 452.89 547.17 435.73 463.8 435.73"/>
    <polyline class="cls-8" points="463.8 487.51 547.17 487.51 547.17 468.61 463.8 468.61"/>
    <polyline class="cls-8" points="646.45 435.73 562.89 435.73 562.89 452.89 646.45 452.89"/>
    <polyline class="cls-8" points="646.45 468.61 562.89 468.61 562.89 487.51 646.45 487.51"/>
    <path class="cls-7"
          d="M646.28,577.09l-68.59-37.57h68.76V523.8H558.27a99.92,99.92,0,0,0,4.56-20.57h83.62V487.51H562.89v-18.9h83.56V452.89H562.89V435.73h83.56V420H609.36l10.82-18h0a15.46,15.46,0,0,0-21.53,4.75L590.86,420H519.43l-7.79-13.14a15.58,15.58,0,0,0-21.62-4.7L500.47,420H463.8v15.72h83.37v17.16H463.8v15.72h83.37v18.9H463.8v15.72h83.35a72.06,72.06,0,0,1-5.3,20.57H463.8v15.72h70.66c-14.71,23.85-39.17,35.4-69.39,40.67A16.42,16.42,0,0,0,451.46,598c44.62-4.63,80.68-19.19,99.41-55.25l101.48,55.48A15.48,15.48,0,0,0,646.28,577.09Z"/>
</svg>
