<?xml version="1.0" encoding="utf-8"?>
<!-- Generator: Adobe Illustrator 22.1.0, SVG Export Plug-In . SVG Version: 6.00 Build 0)  -->
<svg version="1.1" id="图层_1" xmlns="http://www.w3.org/2000/svg" xmlns:xlink="http://www.w3.org/1999/xlink" x="0px" y="0px"
	 viewBox="0 0 104 26" style="enable-background:new 0 0 104 26;" xml:space="preserve">
<style type="text/css">
	.st0{display:none;fill:#FFFFFF;}
	.st1{fill:url(#SVGID_1_);}
	.st2{fill:url(#SVGID_2_);}
	.st3{fill:url(#SVGID_3_);}
	.st4{fill:url(#SVGID_4_);}
	.st5{fill:url(#SVGID_5_);}
	.st6{fill:#1262B2;}
	.st7{fill:#475766;}
	.st8{fill:none;}
</style>
<rect class="st0" width="104" height="26"/>
<g>
	<g>
		<linearGradient id="SVGID_1_" gradientUnits="userSpaceOnUse" x1="21.9388" y1="8.0288" x2="24.1458" y2="14.0924">
			<stop  offset="0" style="stop-color:#19B2FF"/>
			<stop  offset="1" style="stop-color:#1262B2"/>
		</linearGradient>
		<path class="st1" d="M35,4.1L35,4.1c-0.3-0.4-0.8-0.6-1.3-0.3L10.7,17.1c0.2,0.3,0.3,0.5,0.5,0.8c0.2,0.3,0.3,0.5,0.4,0.8
			L34.7,5.3C35.1,5.1,35.3,4.5,35,4.1z"/>
		<linearGradient id="SVGID_2_" gradientUnits="userSpaceOnUse" x1="22.8129" y1="11.7415" x2="24.9958" y2="17.739">
			<stop  offset="0" style="stop-color:#19B2FF"/>
			<stop  offset="1" style="stop-color:#1262B2"/>
		</linearGradient>
		<path class="st2" d="M20.1,15.9l-0.4,0.2l-7.3,4.2c0.2,0.6,0.4,1.2,0.6,1.8l8.3-4.8l0.4-0.2l13.4-7.7c0-0.7-0.1-1.3-0.2-2
			L20.1,15.9z"/>
		<linearGradient id="SVGID_3_" gradientUnits="userSpaceOnUse" x1="19.1824" y1="5.5056" x2="21.2952" y2="11.3103">
			<stop  offset="0" style="stop-color:#19B2FF"/>
			<stop  offset="1" style="stop-color:#1262B2"/>
		</linearGradient>
		<path class="st3" d="M17.3,11.1l14.8-8.5c-0.5-0.5-1-0.9-1.6-1.2L17.1,9.1l-0.4,0.2l-8.3,4.8c0.4,0.4,0.9,0.9,1.2,1.4l7.3-4.2
			L17.3,11.1z"/>
		<linearGradient id="SVGID_4_" gradientUnits="userSpaceOnUse" x1="23.2509" y1="15.7836" x2="25.404" y2="21.6992">
			<stop  offset="0" style="stop-color:#19B2FF"/>
			<stop  offset="1" style="stop-color:#1262B2"/>
		</linearGradient>
		<path class="st4" d="M13.4,24c0.1,0.7,0.2,1.3,0.2,2l13.2-7.6l7-4c0.6-0.9,1-1.9,1.3-2.9L23.7,18L13.4,24z"/>
		<linearGradient id="SVGID_5_" gradientUnits="userSpaceOnUse" x1="16.0455" y1="3.464" x2="17.9994" y2="8.8324">
			<stop  offset="0" style="stop-color:#19B2FF"/>
			<stop  offset="1" style="stop-color:#1262B2"/>
		</linearGradient>
		<path class="st5" d="M17.3,6.9l11.4-6.6c-1-0.3-2.1-0.4-3.1-0.3l-7,4L5.3,11.7c0.6,0.4,1.1,0.8,1.6,1.2L17.3,6.9z"/>
	</g>
	<path class="st6" d="M2.7,16.4L0,24.3l8.2,1.7c-0.3-1.9-0.9-3.7-1.8-5.3C5.4,18.9,4.1,17.5,2.7,16.4z"/>
	<g>
		<g>
			<g>
				<path class="st7" d="M78.7,21.2h5.1v-2.1h-4.1l2.7-6.5c0.4-0.9-0.3-1.8-1.2-1.8l-0.3,0h-1.4l2.9-8.7c-1.1-0.4-2.3,0.2-2.7,1.2
					l-2.6,7.9c-0.3,0.8,0.3,1.6,1.1,1.6h1.8l-2.7,6.4C77.1,20.3,77.7,21.2,78.7,21.2z"/>
				<rect x="77.1" y="23.9" class="st7" width="6.8" height="2.1"/>
				<path class="st7" d="M104,6.2V5.3c0-1.8-1.5-3.2-3.3-3.2h-4.3c0-1.1-0.9-2-2-2h-0.1v2h-4.8c-1.8,0-3.2,1.4-3.3,3.2L86.2,26
					l2.1,0l0-16.6h12.5C102.5,9.4,104,7.9,104,6.2z M88.3,7.3l0.1-2c0-0.7,0.5-1.2,1.2-1.2h11.1c0.7,0,1.2,0.5,1.2,1.2v0.8
					c0,0.7-0.5,1.2-1.2,1.2H88.3z"/>
				<path class="st7" d="M100.8,11.3h-8c-1.8,0-3.2,1.4-3.2,3.2V26h2.1v-5.5h2.1V26h2.1v-5.5h2V26h2.1v-5.5h2.1V26h2.1V14.5
					C104,12.7,102.6,11.3,100.8,11.3z M93.7,18.4h-2.1v-3.9c0-0.7,0.5-1.2,1.2-1.2h0.9V18.4z M97.7,18.4h-2v-5.1h2V18.4z
					 M101.9,18.4h-2.1v-5.1h1c0.6,0,1.1,0.5,1.1,1.2V18.4z"/>
			</g>
			<g>
				<polyline class="st8" points="47.3,7 58.2,7 58.2,4.8 47.3,4.8 				"/>
				<polyline class="st8" points="47.3,11.5 58.2,11.5 58.2,9.1 47.3,9.1 				"/>
				<polyline class="st8" points="71.1,4.8 60.2,4.8 60.2,7 71.1,7 				"/>
				<polyline class="st8" points="71.1,9.1 60.2,9.1 60.2,11.5 71.1,11.5 				"/>
				<path class="st7" d="M71.1,23.2l-9-4.9h9v-2.1H59.6c0.2-0.6,0.4-1.4,0.6-2.7h10.9v-2.1H60.2V9.1h10.9V7H60.2V4.8h10.9V2.7h-4.8
					l1.4-2.3h0C66.8-0.2,65.5,0,64.9,1l-1,1.7h-9.3l-1-1.7c-0.6-1-1.9-1.2-2.8-0.6l1.4,2.3h-4.8v2.1h10.9V7H47.3v2.1h10.9v2.5H47.3
					v2.1h10.8h0c-0.1,1.1-0.4,2-0.7,2.7H47.3v2.1h9.2c-1.9,3.1-5.1,4.6-9.1,5.3c-1.1,0.2-1.9,1.2-1.8,2.3c5.8-0.6,10.5-2.5,13-7.2
					L71.9,26C72.5,25,72.1,23.8,71.1,23.2z"/>
			</g>
		</g>
		<path class="st7" d="M96.4,3.6h-2V0l0,0c1.1,0,2,0.9,2,2V3.6z"/>
	</g>
</g>
</svg>
